<?xml version="1.0" standalone="no"?>
<!DOCTYPE svg PUBLIC "-//W3C//DTD SVG 20010904//EN"
 "http://www.w3.org/TR/2001/REC-SVG-20010904/DTD/svg10.dtd">
<svg version="1.0" xmlns="http://www.w3.org/2000/svg"
 width="400" height="400" viewBox="250 0 102.000000 548.000000"
 preserveAspectRatio="xMidYMid meet">

<g transform="translate(0.000000,648.000000) scale(0.100000,-0.100000)"
fill="#000000" stroke="none">
<path d="M3455 5985 c-16 -9 -46 -31 -65 -50 l-35 -34 -253 -3 -254 -3 -30
-34 c-28 -31 -30 -39 -25 -83 6 -46 5 -48 -19 -48 -40 0 -84 -51 -84 -97 0
-21 7 -49 16 -61 30 -44 64 -52 207 -52 l133 0 0 -51 c-1 -45 3 -54 32 -80 18
-16 39 -29 47 -29 11 0 13 -9 9 -42 -6 -54 11 -88 56 -110 29 -15 64 -18 215
-18 99 0 207 5 240 10 130 21 233 98 292 219 26 52 28 65 28 176 0 115 -1 123
-32 186 -41 82 -100 141 -181 181 -55 27 -76 32 -165 35 -81 3 -108 1 -132
-12z m269 -63 c61 -27 132 -96 164 -157 22 -42 27 -67 30 -150 3 -84 0 -109
-17 -156 -56 -147 -184 -219 -392 -219 l-66 0 5 50 c3 39 1 55 -13 70 -16 17
-16 21 -1 42 18 25 21 90 6 119 -14 25 -62 49 -97 49 -26 0 -23 4 49 77 l77
77 36 -41 c38 -45 117 -88 176 -96 74 -11 81 36 7 48 -109 18 -198 110 -198
203 0 34 -19 55 -39 42 -10 -6 -12 -21 -8 -58 l6 -50 -95 -94 c-52 -51 -105
-97 -118 -102 -27 -10 -63 -3 -91 18 -19 15 -13 22 144 173 90 87 175 164 190
171 38 19 188 9 245 -16z m-482 -132 l-63 -60 -142 0 c-94 0 -150 5 -167 13
-31 16 -39 61 -14 88 16 18 33 19 233 19 l216 -1 -63 -59z m-136 -129 c-22
-23 -27 -37 -24 -60 l5 -31 -155 0 c-167 0 -192 7 -192 54 1 57 30 65 224 66
l170 0 -28 -29z m269 -147 c27 -11 38 -53 20 -80 -15 -23 -20 -24 -142 -24
-104 0 -130 3 -145 17 -22 20 -23 51 -1 75 14 15 32 18 134 18 64 0 125 -3
134 -6z m14 -180 c27 -34 26 -40 -4 -69 -21 -22 -33 -25 -92 -25 -82 0 -113
17 -113 60 0 44 31 60 116 60 66 0 74 -2 93 -26z"/>
<path d="M2418 5293 c-26 -16 -48 -58 -48 -90 0 -25 210 -596 235 -639 60
-103 171 -166 306 -172 99 -5 170 12 237 55 56 37 502 518 502 542 0 11 -16
33 -35 50 -30 26 -44 31 -86 31 -64 0 -90 -14 -163 -89 -57 -57 -60 -59 -85
-47 -14 8 -41 17 -58 21 l-33 7 0 73 c0 41 -5 86 -12 100 -21 46 -93 69 -138
45 -15 -8 -25 -4 -49 20 -23 24 -38 30 -71 30 -33 0 -48 -6 -71 -30 -24 -24
-34 -28 -49 -20 -24 13 -63 13 -93 -1 -25 -11 -57 -57 -57 -82 0 -44 -20 -16
-50 69 -19 52 -44 104 -56 115 -30 28 -92 34 -126 12z m94 -50 c8 -10 30 -61
48 -113 39 -110 46 -123 71 -115 17 6 19 0 19 -75 0 -80 1 -83 34 -116 40 -40
89 -46 127 -15 22 18 24 18 53 0 39 -24 73 -24 112 0 29 18 31 18 53 0 38 -31
87 -25 127 15 22 22 34 44 34 61 0 23 3 25 23 20 12 -4 39 -16 61 -26 l38 -20
84 81 c75 72 87 80 123 80 22 0 47 -7 59 -17 21 -18 18 -21 -196 -250 -119
-128 -232 -244 -251 -257 -58 -43 -123 -59 -220 -54 -67 3 -97 10 -137 30 -49
26 -111 84 -134 127 -17 34 -220 594 -220 610 0 22 31 51 55 51 12 0 29 -8 37
-17z m448 -83 c18 -18 20 -33 20 -150 0 -117 -2 -132 -20 -150 -11 -11 -29
-20 -40 -20 -11 0 -29 9 -40 20 -18 18 -20 33 -20 150 0 117 2 132 20 150 11
11 29 20 40 20 11 0 29 -9 40 -20z m-169 -30 c17 -10 19 -22 19 -132 0 -99 -3
-125 -17 -140 -20 -22 -51 -23 -75 -1 -15 14 -18 32 -18 131 0 93 3 119 17
134 18 20 45 23 74 8z m333 -6 c24 -23 23 -240 -1 -266 -20 -22 -51 -23 -75
-1 -16 14 -18 33 -18 139 0 107 2 124 18 133 25 15 58 13 76 -5z"/>
<path d="M2326 4056 c-54 -20 -107 -65 -136 -117 l-25 -44 0 -300 c0 -288 1
-302 22 -340 48 -90 117 -130 223 -129 86 0 140 22 185 76 50 59 58 92 63 251
l4 147 79 0 79 0 0 -240 0 -240 70 0 70 0 0 475 0 475 -70 0 -70 0 0 -170 0
-170 -79 0 -78 0 -6 80 c-7 82 -36 158 -73 191 -64 56 -185 82 -258 55z m134
-141 c16 -8 34 -24 40 -34 6 -12 10 -123 10 -288 0 -294 -1 -298 -59 -323 -41
-17 -92 -6 -122 26 -24 25 -24 27 -27 282 -2 230 -1 261 15 292 29 57 86 75
143 45z"/>
<path d="M4040 3595 l0 -475 70 0 70 0 0 475 0 475 -70 0 -70 0 0 -475z"/>
<path d="M1133 3858 c-87 -112 -162 -209 -167 -215 -5 -10 14 -13 83 -13 l90
0 102 128 c56 70 105 130 109 135 3 4 55 -54 115 -128 l109 -135 93 0 93 0
-171 215 -171 215 -63 0 -62 0 -160 -202z"/>
<path d="M3390 3995 l0 -65 173 -2 172 -3 3 -127 3 -128 -176 0 -175 0 0 -270
0 -270 250 0 250 0 0 60 0 60 -180 0 -180 0 0 135 0 135 170 0 170 0 0 270 0
270 -240 0 -240 0 0 -65z"/>
<path d="M4699 4037 c-102 -67 -103 -239 -2 -307 36 -25 38 -25 292 -28 252
-3 257 -3 301 21 64 33 93 91 88 174 -4 70 -23 103 -78 141 -32 21 -40 22
-300 22 -261 0 -268 -1 -301 -23z m542 -128 c8 -16 8 -28 0 -45 l-11 -24 -230
0 -230 0 -11 24 c-8 17 -8 29 0 45 11 20 17 21 241 21 224 0 230 -1 241 -21z"/>
<path d="M4570 3580 l0 -60 178 -2 177 -3 3 -32 3 -33 -150 0 -151 0 0 -165 0
-165 370 0 370 0 0 165 0 165 -151 0 -150 0 3 33 3 32 178 3 177 2 0 60 0 60
-430 0 -430 0 0 -60z m665 -295 l0 -50 -232 -3 -233 -2 0 55 0 55 233 -2 232
-3 0 -50z"/>
<path d="M920 3465 l0 -65 185 0 185 0 0 -140 0 -140 70 0 70 0 0 140 0 140
175 0 175 0 0 65 0 65 -430 0 -430 0 0 -65z"/>
<path d="M2468 2758 l-3 -73 -36 -3 c-35 -3 -37 -2 -48 42 -24 98 -124 116
-165 30 -18 -38 -22 -138 -6 -178 26 -70 99 -89 143 -37 13 16 28 46 31 65 7
34 9 36 46 36 l40 0 0 -95 c0 -88 1 -95 20 -95 19 0 20 7 20 190 0 182 -1 190
-20 190 -17 0 -19 -8 -22 -72z m-142 -14 c11 -17 17 -46 17 -84 0 -101 -57
-150 -89 -75 -29 70 -7 185 35 185 11 0 28 -12 37 -26z"/>
<path d="M2990 2780 l0 -50 -40 0 -40 0 0 40 c0 36 -2 40 -25 40 -22 0 -25 -4
-25 -35 l0 -35 -50 0 -50 0 0 35 c0 28 -4 35 -20 35 -19 0 -20 -7 -20 -105 l0
-105 95 0 95 0 0 46 0 45 38 -3 37 -3 3 -67 c3 -60 5 -68 22 -68 19 0 20 8 20
140 0 133 -1 140 -20 140 -17 0 -20 -7 -20 -50z m-130 -105 l0 -35 -50 0 -50
0 0 35 0 35 50 0 50 0 0 -35z"/>
<path d="M3400 2810 c0 -18 -7 -20 -59 -20 -33 0 -63 5 -66 10 -3 6 -27 10
-51 10 -37 0 -51 -6 -75 -29 -80 -80 18 -199 122 -147 17 9 54 16 81 16 47 0
48 -1 48 -30 0 -23 4 -30 20 -30 19 0 20 7 20 120 0 113 -1 120 -20 120 -13 0
-20 -7 -20 -20z m-136 -52 c9 -12 16 -31 16 -42 0 -52 -75 -76 -104 -34 -21
30 -20 54 4 78 27 27 65 26 84 -2z m136 -38 c0 -28 -2 -30 -40 -30 -38 0 -40
2 -40 30 0 28 2 30 40 30 38 0 40 -2 40 -30z"/>
<path d="M4080 2700 l0 -130 25 0 c23 0 25 3 25 50 0 47 2 50 25 50 18 0 25 5
25 20 0 15 -7 20 -25 20 -24 0 -25 3 -25 60 0 57 -1 60 -25 60 l-25 0 0 -130z"/>
<path d="M4365 2797 c-14 -22 -37 -38 -73 -52 -50 -19 -64 -36 -41 -50 12 -8
59 10 111 42 l38 23 47 -29 c62 -38 98 -47 106 -27 4 11 -9 22 -49 40 -35 16
-61 36 -72 55 -22 39 -42 39 -67 -2z"/>
<path d="M1922 2786 c-13 -34 -63 -76 -116 -96 -27 -10 -28 -12 -14 -26 14
-14 20 -14 59 6 24 12 56 34 72 48 l27 26 28 -26 c35 -34 108 -72 122 -63 20
12 10 25 -39 50 -50 25 -91 70 -91 99 0 30 -36 17 -48 -18z"/>
<path d="M3860 2805 c0 -12 14 -15 70 -15 56 0 70 3 70 15 0 12 -14 15 -70 15
-56 0 -70 -3 -70 -15z"/>
<path d="M3582 2784 c-24 -17 -30 -62 -11 -92 9 -14 5 -24 -20 -51 -42 -45
-44 -109 -5 -140 32 -25 92 -28 134 -6 25 13 29 13 34 0 5 -14 56 -22 56 -10
0 3 -9 18 -20 33 -18 25 -19 30 -6 67 13 36 13 41 -2 46 -22 9 -32 2 -32 -22
0 -10 -4 -19 -9 -19 -16 0 -103 128 -99 146 5 28 43 35 70 14 17 -13 29 -16
39 -9 11 8 9 14 -14 34 -33 29 -81 33 -115 9z m79 -217 l21 -27 -37 -16 c-33
-14 -39 -14 -61 1 -30 19 -31 53 -2 90 l21 27 19 -23 c10 -13 28 -36 39 -52z"/>
<path d="M3805 2750 c-15 -24 12 -30 121 -30 107 0 114 1 114 20 0 19 -7 20
-114 20 -66 0 -117 -4 -121 -10z"/>
<path d="M3842 2680 c-27 -26 -28 -44 -2 -70 16 -16 33 -20 83 -20 72 0 107
18 107 55 0 36 -35 55 -105 55 -48 0 -66 -4 -83 -20z m139 -26 c18 -21 -3 -34
-58 -34 -44 0 -59 11 -49 35 8 21 89 20 107 -1z"/>
<path d="M4210 2645 c0 -13 27 -15 185 -15 158 0 185 2 185 15 0 13 -27 15
-185 15 -158 0 -185 -2 -185 -15z"/>
<path d="M1760 2590 c0 -18 7 -20 85 -20 l85 0 0 -60 c0 -53 2 -60 20 -60 18
0 20 7 20 60 l0 60 80 0 c73 0 80 2 80 20 0 19 -7 20 -185 20 -178 0 -185 -1
-185 -20z"/>
<path d="M4270 2525 l0 -75 130 0 130 0 0 75 c0 67 -2 75 -19 75 -10 0 -21 -9
-24 -20 -5 -18 -14 -20 -91 -20 -79 0 -86 2 -86 20 0 13 -7 20 -20 20 -18 0
-20 -7 -20 -75z m220 -15 c0 -19 -7 -20 -90 -20 -83 0 -90 1 -90 20 0 19 7 20
90 20 83 0 90 -1 90 -20z"/>
<path d="M2770 2515 l0 -55 135 0 c112 0 135 3 135 15 0 12 -22 15 -112 17
l-113 3 -3 38 c-3 29 -7 37 -23 37 -16 0 -19 -7 -19 -55z"/>
<path d="M3170 2555 c0 -12 22 -15 113 -17 l112 -3 3 -47 c3 -40 6 -48 23 -48
17 0 19 7 19 65 l0 65 -135 0 c-112 0 -135 -3 -135 -15z"/>
<path d="M3860 2535 c0 -12 19 -15 110 -15 l110 0 0 -40 c0 -36 3 -40 25 -40
24 0 25 3 25 55 l0 55 -135 0 c-113 0 -135 -2 -135 -15z"/>
</g>
</svg>
